<svg xmlns="http://www.w3.org/2000/svg" xmlns:xlink="http://www.w3.org/1999/xlink" version="1.1" id="Layer_1" x="0px" y="0px" enable-background="new 0 0 800 448" xml:space="preserve" viewBox="140.39 88.1 513.38 284.66">
<path fill="#444444" opacity="1.000000" stroke="C154" d=" M436.976929,236.097961   C434.243866,238.300507 431.334198,237.434906 428.612427,237.220718   C425.548920,236.979584 426.020874,234.203278 425.933350,232.148331   C425.360138,218.694153 424.860504,205.236847 424.291626,190.617935   C418.972717,201.672043 413.934113,211.659119 409.379913,221.862411   C407.709320,225.605179 405.408325,226.460373 401.660919,226.460342   C398.052734,226.460312 396.402771,225.001938 395.003265,221.841507   C390.557831,211.803070 385.773956,201.914536 380.547058,190.741440   C379.999268,200.407394 379.187836,208.716949 379.223022,217.109894   C379.246735,222.759628 378.701935,228.416641 378.292816,234.061813   C377.928772,239.085114 373.961761,236.901169 371.385254,237.281219   C368.755432,237.669128 367.410889,236.565567 367.523621,233.620300   C368.326202,212.654602 369.034729,191.685272 369.766083,170.716858   C369.841736,168.548340 370.233582,166.548355 373.002106,166.705124   C376.387543,166.896805 380.199554,165.083313 382.370056,169.962387   C388.122498,182.893265 394.268280,195.649399 400.287354,208.461044   C400.827789,209.611389 400.916687,211.092438 402.545135,211.820175   C405.104980,208.664062 406.030853,204.705597 407.665131,201.131485   C412.236267,191.134674 416.601593,181.043823 421.066895,170.998428   C422.782806,167.138153 428.975586,165.061676 432.788239,166.956909   C434.530762,167.823090 434.281494,169.409973 434.360565,170.838104   C434.986786,182.142151 435.652466,193.445129 436.134155,204.755737   C436.573242,215.064865 436.797150,225.383163 436.976929,236.097961  z"/>
<path fill="#444444" opacity="1.000000" stroke="none" d=" M161.444977,181.414307   C151.379257,191.207794 149.032135,204.734558 155.335663,215.285187   C161.260406,225.201859 174.425354,230.139893 185.846130,226.672668   C190.597870,225.230103 194.526077,222.512054 197.645630,218.639908   C199.288147,216.601089 199.264648,214.201599 198.509460,211.985275   C197.738068,209.721390 195.441101,210.456650 193.705994,210.406677   C190.208923,210.305984 186.700378,210.209747 183.209961,210.382339   C179.657318,210.558029 178.556641,208.932465 178.627975,205.595322   C178.694214,202.496506 178.768707,199.918564 182.949753,199.975204   C190.613861,200.079056 198.281235,200.036819 205.946030,199.949081   C209.177963,199.912094 210.331085,201.375504 210.292450,204.521194   C210.181976,213.518860 210.311386,222.519379 210.215134,231.517349   C210.188568,234.000290 210.999832,237.273331 206.741531,237.334564   C203.278397,237.384369 199.197037,238.381516 199.554977,232.758469   C198.014374,232.031448 197.164078,233.093491 196.220947,233.619522   C179.610474,242.884109 157.680054,238.158569 147.132935,223.014221   C136.170792,207.273941 138.825729,186.082596 153.298462,173.801956   C168.108063,161.235504 189.822632,161.931534 203.891403,175.253891   C206.435944,177.663422 206.055435,179.357391 203.689163,181.315689   C201.664322,182.991409 200.778885,186.804962 196.701141,183.350952   C184.713333,173.196869 173.564560,172.698318 161.444977,181.414307  z"/>
<path fill="#444444" opacity="1.000000" stroke="none" d=" M537.295288,198.084305   C537.288879,209.729614 537.138489,220.893127 537.353271,232.049606   C537.430542,236.062607 536.404358,237.646683 532.077759,237.536026   C527.849365,237.427887 525.707520,236.666855 525.764832,231.758942   C525.988464,212.605072 525.798157,193.446655 525.931152,174.291107   C525.948975,171.727859 524.477234,168.325119 528.071228,166.820374   C531.956848,165.193527 537.147644,166.818100 539.488586,170.232361   C546.173279,179.982071 552.812927,189.762634 559.461426,199.537125   C562.899658,204.591965 566.318909,209.659653 570.673584,214.495880   C570.673584,200.723785 570.662964,186.951675 570.678284,173.179596   C570.685547,166.658875 571.622375,165.970917 578.338135,166.423386   C580.917786,166.597183 581.317383,167.941727 581.316040,169.997330   C581.302612,191.152573 581.310852,212.307816 581.290405,233.463043   C581.288818,235.118851 581.377747,237.178146 579.041809,237.183884   C575.897095,237.191620 572.389099,238.655991 569.972107,234.984985   C565.119385,227.614426 560.127197,220.335098 555.147644,213.048828   C549.547058,204.853958 543.896973,196.692963 537.295532,188.818695   C537.295532,191.745712 537.295532,194.672714 537.295288,198.084305  z"/>
<path fill="#444444" opacity="1.000000" stroke="none" d=" M233.649338,230.601746   C230.527252,238.045593 229.118134,238.671875 220.811905,236.563202   C219.952301,234.446121 221.195724,232.684021 221.932571,230.902649   C230.140350,211.060562 238.388855,191.235306 246.652756,171.416519   C248.444611,167.119263 255.784775,164.487656 259.403015,167.143158   C262.061066,169.093979 262.114227,171.630753 259.800995,174.429642   C254.108673,181.317001 247.022888,196.201523 245.964005,202.773300   C249.757111,203.948486 255.352173,204.014099 260.329651,202.842743   C259.857941,199.851898 258.325317,197.247223 256.762238,194.822418   C253.918747,190.411423 255.263062,186.997742 258.621033,183.768402   C261.908813,180.606537 263.114777,180.812073 265.038483,185.133911   C270.047424,196.386963 274.962708,207.681763 279.981964,218.930176   C282.084473,223.641983 284.287048,228.312271 286.564545,232.942184   C290.833313,241.620026 297.677063,247.750168 305.952057,252.516312   C309.774323,254.717819 313.999481,256.413116 317.158020,260.125031   C315.252960,262.887024 312.638092,262.156982 310.326447,261.945984   C296.614899,260.694763 287.005432,252.975708 279.580292,242.036713   C274.695496,234.840256 271.194275,226.883774 267.825226,218.917114   C266.267670,215.234024 264.093689,213.956314 260.207611,214.183243   C254.895447,214.493469 249.550491,214.382141 244.224335,214.254395   C241.486847,214.188721 239.962311,215.221634 239.001038,217.806992   C237.436142,222.015823 235.556396,226.107590 233.649338,230.601746  z"/>
<path fill="#444444" opacity="1.000000" stroke="none" d=" M347.622253,237.461029   C340.419067,238.645721 336.202820,235.516296 332.777985,229.745499   C329.397186,224.048904 324.938171,219.003128 321.203339,213.501343   C319.184418,210.527267 316.522278,209.822830 313.424286,210.534607   C309.824554,211.361679 311.197327,214.534851 311.111206,216.774277   C310.900330,222.257080 310.930267,227.752182 310.985809,233.241089   C311.023590,236.976089 308.854706,237.546509 305.779388,237.418213   C302.880768,237.297287 299.900879,237.692444 299.908417,233.374100   C299.945099,212.412354 299.941162,191.450531 299.957977,170.488739   C299.960114,167.822739 301.263611,166.608734 303.984253,166.636139   C312.800262,166.724930 321.635132,166.375778 330.429047,166.836960   C340.181580,167.348434 347.984772,175.029831 349.269989,184.509247   C350.831512,196.026764 346.067474,204.991409 336.333801,208.823608   C335.283600,209.237045 334.202759,209.572739 332.852631,210.043289   C334.273468,214.286972 337.336731,217.188568 339.587708,220.561142   C342.632416,225.123016 345.994965,229.471756 349.167938,233.949646   C350.308533,235.559387 351.503815,237.349060 347.622253,237.461029  M329.151764,199.748779   C332.967224,198.992645 335.945679,197.152756 337.532501,193.420059   C341.104523,185.017731 335.651917,177.224197 325.708740,177.131348   C307.506683,176.961365 311.432800,175.350342 311.133118,190.250473   C310.931335,200.282745 311.107727,200.309753 321.421448,200.253494   C323.739594,200.240829 326.056488,200.001343 329.151764,199.748779  z"/>
<path fill="#444444" opacity="1.000000" stroke="none" d=" M614.530457,166.369049   C625.622253,166.322067 636.279297,166.164154 646.936523,166.156555   C652.970398,166.152252 654.814453,168.869232 653.225098,174.693283   C652.624634,176.893570 651.019653,176.967773 649.367859,177.005264   C645.703735,177.088409 642.017456,177.293991 638.376160,177.001633   C633.642639,176.621597 632.024536,178.313354 632.074280,183.200455   C632.292908,204.692963 632.137329,226.189240 632.124146,247.684158   C632.116272,260.514465 632.188965,273.345367 632.077026,286.174713   C632.045044,289.837311 633.660583,294.722198 626.778259,294.310120   C621.407166,293.988525 621.067505,293.842712 621.046692,285.904755   C620.958252,252.246262 620.902954,218.587692 620.832214,184.929138   C620.815674,177.056213 620.809570,177.055069 612.864746,177.044968   C610.531982,177.041992 608.198853,177.073257 605.866455,177.044250   C599.889526,176.969940 599.302734,176.226944 599.629028,170.338654   C599.763184,167.917465 600.511597,166.619843 603.123535,166.616882   C606.781006,166.612747 610.438416,166.428329 614.530457,166.369049  z"/>
<path fill="#444444" opacity="1.000000" stroke="none" d=" M459.906311,188.000198   C459.920532,182.005035 459.990448,176.509171 459.927582,171.014847   C459.891663,167.873428 461.199341,166.564148 464.421906,166.586761   C476.743866,166.673264 489.068420,166.692795 501.388824,166.515839   C505.121918,166.462234 505.413116,168.506729 505.279358,171.279282   C505.146973,174.022614 505.957306,177.233170 501.396576,177.189148   C492.904816,177.107208 484.410065,177.274002 475.919556,177.144226   C472.543427,177.092621 470.961304,178.208939 471.263000,181.759750   C471.683319,186.707428 469.290710,192.970657 472.245544,196.283997   C475.100708,199.485596 481.363861,196.677078 486.118378,197.079910   C489.265656,197.346558 492.447266,197.636383 495.587128,197.456299   C499.823547,197.213333 500.011993,199.750000 500.063934,202.862900   C500.121704,206.322952 498.595032,207.518478 495.208649,207.430862   C488.718933,207.262909 482.220184,207.477432 475.727203,207.386887   C472.590851,207.343155 471.104858,208.520126 471.242371,211.787918   C471.389252,215.278915 471.441376,218.789429 471.244476,222.275009   C471.047089,225.769547 472.505829,227.003769 475.916138,226.948227   C483.906982,226.818039 491.904938,227.060120 499.893494,226.873184   C503.982117,226.777496 505.440521,228.259750 505.404633,232.407440   C505.370026,236.400269 504.247131,238.130371 500.009308,238.051590   C488.522888,237.838074 477.029297,237.823013 465.541504,237.965744   C461.139984,238.020432 459.800323,236.180954 459.850037,231.962173   C460.020660,217.476624 459.909912,202.987762 459.906311,188.000198  z"/>
<path fill="#444444" opacity="1.000000" stroke="none" d=" M367.687378,136.267517   C384.856445,147.334564 379.871796,146.478073 395.623779,136.592300   C414.785950,124.566345 434.054779,112.690323 452.674408,99.815979   C453.746826,99.074440 454.800049,98.225349 456.571198,98.264832   C456.804535,100.527214 455.042603,101.407074 453.830322,102.542236   C435.211121,119.977165 415.210876,135.671555 394.172272,150.080826   C384.643127,156.607330 380.098938,156.883957 370.541473,150.464462   C360.874725,143.971542 351.307007,137.331268 341.689545,130.764862   C336.952667,127.530746 334.558258,123.115883 334.620422,117.353432   C337.200775,115.776016 338.948792,117.513527 340.643250,118.602966   C349.598724,124.360802 358.482147,130.230667 367.687378,136.267517  z"/>
<path fill="#444444" opacity="1.000000" stroke="none" d=" M251.978607,308.000000   C251.982056,298.666687 251.777649,289.826477 252.072449,281.002899   C252.229019,276.316406 250.433304,275.058960 245.962875,275.085571   C216.130600,275.263458 186.296951,275.234375 156.463821,275.202698   C154.406265,275.200500 151.781479,276.107971 150.555573,273.284088   C151.921951,270.933380 153.957321,271.696594 155.635193,271.681793   C181.296280,271.455353 206.957748,271.261536 232.619507,271.137390   C237.279129,271.114838 241.957001,271.247070 246.595978,271.654541   C250.785522,272.022461 252.156723,270.423004 252.092484,266.280426   C251.883163,252.783401 251.936432,239.281570 251.991333,225.782013   C251.999359,223.808044 251.206863,221.372513 253.864777,220.085022   C256.161102,221.447784 255.287201,223.668045 255.299698,225.476654   C255.391754,238.809235 255.550095,252.146378 255.280380,265.473816   C255.183289,270.270325 256.608002,271.917114 261.497437,271.649445   C283.141388,270.464478 304.812531,271.272888 326.472321,271.174011   C329.184723,271.161621 332.076294,270.739288 334.865051,272.501587   C333.602661,275.877228 330.808533,275.121735 328.569977,275.128632   C306.403656,275.196960 284.237091,275.183746 262.070587,275.185913   C255.470581,275.186554 255.408691,275.175354 255.398148,281.855377   C255.353394,310.188416 255.362076,338.521606 255.298904,366.854614   C255.294678,368.755554 255.923615,370.861572 254.057434,372.758759   C251.265671,371.842621 251.966431,369.426758 251.963669,367.499786   C251.935425,347.833252 251.964920,328.166595 251.978607,308.000000  z"/>
<path fill="#444444" opacity="1.000000" stroke="none" d=" M356.639282,266.645569   C351.910065,272.954651 351.826538,280.063507 356.160858,284.692535   C360.276428,289.087830 366.551270,290.022064 371.668060,287.001312   C374.116241,285.556000 374.295624,285.288818 375.363373,281.419891   C373.074005,279.471802 370.289276,280.671448 367.755310,280.358551   C366.045807,280.147491 364.235413,280.149689 364.154022,277.853058   C364.064880,275.336029 365.902740,274.909027 367.869843,274.885590   C371.366364,274.843903 374.864075,274.904938 378.360748,274.869537   C381.043091,274.842377 382.328918,276.045197 382.283844,278.792236   C382.215576,282.954193 382.295715,287.118347 382.264893,291.281219   C382.239532,294.704742 379.571198,295.732086 377.668549,294.083710   C375.142822,291.895538 373.359161,292.907349 371.052643,293.643402   C362.944641,296.230774 354.490540,293.405396 349.806763,286.657898   C345.247131,280.089264 345.527161,270.413788 350.455658,264.238464   C355.104645,258.413269 364.427673,256.119781 371.857239,259.080048   C373.382843,259.687927 374.882111,260.531067 376.154633,261.560913   C377.633484,262.757751 379.698151,264.027496 377.991882,266.448700   C376.141663,269.074127 374.407288,267.614197 372.548096,266.270203   C367.342682,262.507202 362.093109,262.452118 356.639282,266.645569  z"/>
<path fill="#444444" opacity="1.000000" stroke="none" d=" M529.483704,282.828369   C529.277283,285.880676 529.215637,288.541260 529.109375,291.200043   C529.030457,293.172943 528.080078,294.236023 525.987610,294.234009   C523.940063,294.232056 522.815918,293.277832 522.808044,291.266174   C522.769592,281.447815 522.792725,271.629272 522.775330,261.810791   C522.771240,259.482910 524.102417,258.608276 526.206665,258.430298   C531.536560,257.979431 536.886292,258.156616 542.067749,259.294830   C546.687988,260.309753 549.541931,263.665344 550.166138,268.397736   C550.900513,273.966461 547.804382,277.472443 542.889893,279.915863   C544.066467,285.124603 549.004822,288.199585 550.329346,293.422485   C547.019165,295.073730 544.600769,294.378967 542.667480,291.411957   C541.032959,288.903625 539.280457,286.472198 537.579590,284.007141   C535.433105,280.896240 532.836243,280.067474 529.483704,282.828369  M541.176514,265.040375   C538.841858,263.820343 536.300781,264.378174 533.845581,264.166626   C530.452576,263.874298 529.151001,265.269135 529.129517,268.745117   C529.087219,275.598511 530.079712,276.542511 537.454041,275.482147   C543.870972,274.559448 545.456177,270.946747 541.176514,265.040375  z"/>
<path fill="#444444" opacity="1.000000" stroke="none" d=" M494.152954,294.356995   C489.971863,294.746124 488.685883,293.003204 488.744812,289.401611   C488.889038,280.587250 488.882660,271.767212 488.733246,262.952911   C488.678619,259.730316 490.051422,258.301483 493.085602,258.339172   C498.566284,258.407196 504.046234,258.557404 509.525269,258.715729   C510.987732,258.757965 512.091736,259.316864 512.177063,261.042084   C512.267639,262.874390 511.404907,263.934052 509.624939,264.027466   C506.970276,264.166779 504.307220,264.168610 501.647461,264.184326   C495.140289,264.222748 495.008911,264.343781 495.227325,270.950287   C495.254364,271.769135 495.397156,272.584137 495.506134,273.582306   C498.758575,274.862091 502.090942,273.725067 505.320221,274.067627   C507.304138,274.278137 509.602844,274.122040 509.668976,276.982880   C509.741150,280.104492 507.407288,280.192688 505.151215,280.222382   C503.321564,280.246460 501.483124,280.356018 499.663483,280.223480   C496.521088,279.994598 495.158539,281.176270 495.153870,284.487823   C495.149261,287.760223 496.414764,288.975067 499.602570,288.823608   C502.755127,288.673828 505.922180,288.808594 509.082428,288.850494   C510.882263,288.874329 512.444397,289.231171 512.414490,291.559143   C512.385803,293.790741 510.995697,294.308441 509.107666,294.309143   C504.283447,294.311005 499.459259,294.339905 494.152954,294.356995  z"/>
<path fill="#444444" opacity="1.000000" stroke="none" d=" M387.961426,288.937622   C391.558594,279.943848 394.987152,271.284851 398.455658,262.641876   C399.181580,260.833008 399.621887,258.732117 402.219330,258.554535   C405.214203,258.349762 405.631134,260.772980 406.444702,262.675903   C410.742950,272.729370 415.574036,282.577820 418.761871,293.277710   C414.969727,295.309998 412.686737,294.005310 411.728790,290.575989   C409.972229,284.287964 404.931183,286.812439 401.009674,286.256073   C397.428345,285.747925 394.921631,286.752136 393.848450,290.584930   C392.939850,293.829865 390.724976,295.152161 387.295685,293.912781   C386.087708,292.234955 387.395386,290.799957 387.961426,288.937622  M400.900848,272.705109   C400.245422,275.158417 398.326447,277.281250 398.804810,280.240234   C401.469513,280.818146 403.953766,281.364594 406.797180,279.618652   C405.530579,276.156128 404.322418,272.853394 402.827881,268.767761   C401.995667,270.423737 401.573883,271.262970 400.900848,272.705109  z"/>
<path fill="#444444" opacity="1.000000" stroke="none" d=" M569.762390,283.376282   C570.091980,279.865906 568.455322,277.550415 566.886169,275.175354   C563.509521,270.064270 560.194214,264.912628 556.663086,259.484467   C562.188660,256.340973 564.094421,260.259613 566.235962,263.456573   C568.355652,266.620880 570.365967,269.858398 572.643738,273.405579   C575.913635,270.572418 577.553284,266.937012 579.799561,263.806000   C582.144531,260.537415 584.095398,256.881531 589.462036,259.358734   C587.511902,263.890076 584.560608,267.696014 581.735168,271.474365   C577.804321,276.731079 575.256287,282.158569 576.082825,288.932709   C576.339905,291.039246 576.748962,294.022156 573.161377,294.137573   C569.242249,294.263611 569.895691,291.210876 569.788391,288.809692   C569.714233,287.150238 569.769287,285.484955 569.762390,283.376282  z"/>
<path fill="#444444" opacity="1.000000" stroke="none" d=" M445.657623,294.321320   C440.877716,294.324158 436.552094,294.229614 432.232452,294.349915   C429.115601,294.436707 427.664307,293.262451 427.701843,290.006409   C427.807373,280.862579 427.747620,271.716980 427.776550,262.572144   C427.782532,260.674377 427.912506,258.834625 430.495239,258.638062   C433.405884,258.416626 433.783112,260.422821 433.819885,262.502899   C433.943298,269.484436 434.141998,276.473206 433.941620,283.448578   C433.821350,287.634583 435.443695,289.175476 439.497955,288.782257   C441.637787,288.574677 443.817322,288.751495 445.978180,288.793121   C447.733490,288.826965 449.387451,289.110474 449.607086,291.320282   C449.867065,293.936432 448.136414,294.315826 445.657623,294.321320  z"/>
<path fill="#444444" opacity="1.000000" stroke="none" d=" M462.256348,258.605286   C465.010620,259.576538 464.272797,261.686432 464.305786,263.373138   C464.416199,269.018097 464.375946,274.665985 464.390076,280.312775   C464.411224,288.740387 464.410065,288.733978 472.616547,288.755005   C474.275940,288.759247 475.938049,288.784637 477.593628,288.886505   C479.400421,288.997681 480.239563,290.019714 480.169891,291.838654   C480.106110,293.501923 479.151611,294.243896 477.621582,294.256378   C472.308746,294.299805 466.995422,294.296753 461.682312,294.295380   C459.252258,294.294739 458.641510,292.754028 458.640228,290.673004   C458.634277,281.040527 458.648682,271.407806 458.571564,261.775818   C458.552551,259.397827 459.602936,258.431854 462.256348,258.605286  z"/>
<path fill="#444444" opacity="1.000000" stroke="none" d=" M316.253510,151.935593   C315.949219,155.249146 316.995422,158.305817 315.194641,160.916687   C312.318878,160.574432 312.762970,158.590149 312.760101,157.090149   C312.719055,135.471100 312.725006,113.851921 312.757782,92.232826   C312.759918,90.815048 312.452789,89.174942 314.453522,88.099533   C316.955597,89.464058 316.210663,91.984192 316.216736,94.072227   C316.272308,113.196732 316.251526,132.321442 316.253510,151.935593  z"/>
<path fill="#444444" opacity="1.000000" stroke="none" d=" M460.096497,323.454681   C462.949127,325.477356 464.039093,327.900330 462.112061,330.512329   C460.194427,333.111603 463.130707,335.203552 462.365356,337.714691   C459.292419,338.181458 459.145844,334.699249 457.248230,333.918793   C454.990356,334.128143 455.928070,337.039215 454.015717,337.394714   C451.966461,335.248322 451.149384,325.449829 453.092743,323.720795   C455.054688,321.975189 457.466980,322.735748 460.096497,323.454681  z"/>
<path fill="#444444" opacity="1.000000" stroke="none" d=" M330.423737,337.735535   C328.311401,336.493744 327.049225,334.992249 326.339661,333.055603   C325.042877,329.515991 325.839355,326.403473 328.808289,324.176575   C331.582031,322.096161 334.821289,321.904846 337.611816,324.051514   C340.615448,326.362152 341.782684,329.507935 340.362457,333.328033   C339.532745,335.559662 337.061890,337.124847 338.103455,339.916473   C334.944366,340.735565 333.150787,338.295746 330.423737,337.735535  M337.294434,328.404785   C335.447144,325.688934 333.243683,324.368927 330.498627,327.159058   C328.825348,328.859863 328.752625,331.023804 329.942322,333.065125   C330.875031,334.665497 332.495697,335.152374 334.218781,334.750488   C337.227692,334.048676 337.925476,331.858887 337.294434,328.404785  z"/>
<path fill="#444444" opacity="1.000000" stroke="none" d=" M545.650085,334.422180   C544.389160,332.897888 543.337402,331.644196 542.173096,330.256317   C540.353516,332.458008 542.510254,335.428680 540.345520,337.257538   C537.551086,334.831573 537.172974,329.215912 539.452820,323.299683   C543.243408,324.189178 543.932617,328.408203 547.082275,330.289459   C548.534973,328.300049 546.768066,325.469208 548.529053,323.564484   C551.623657,325.553467 552.080688,331.754486 549.595520,337.525208   C547.525574,337.673676 546.966125,335.818420 545.650085,334.422180  z"/>
<path fill="#444444" opacity="1.000000" stroke="none" d=" M570.984802,334.579468   C570.931091,332.630920 570.893982,331.133026 570.893555,329.635101   C570.891663,323.305023 571.641968,322.375732 576.420471,322.749573   C581.248291,323.127319 584.686401,327.015625 583.902588,331.465393   C583.255859,335.137146 580.885498,337.393829 577.225891,337.958740   C574.636475,338.358398 571.676758,338.974152 570.984802,334.579468  M575.027527,326.365051   C573.967651,327.659454 574.325745,329.209015 574.338623,330.659546   C574.351257,332.081390 573.919250,333.815826 575.712036,334.554535   C576.836975,335.018097 578.037720,334.768555 578.954834,333.912109   C580.249573,332.703094 580.843018,331.201904 580.357300,329.429962   C579.701477,327.037384 578.175415,325.802338 575.027527,326.365051  z"/>
<path fill="#444444" opacity="1.000000" stroke="none" d=" M483.428802,323.600372   C491.658600,321.982117 496.709106,326.573029 494.511017,333.056091   C493.196533,336.933136 488.840698,339.156952 484.920380,338.121033   C483.059570,337.629272 482.662842,336.377167 482.677582,334.795654   C482.711395,331.172577 482.225403,327.525940 483.428802,323.600372  M487.550842,334.532227   C491.274323,334.597992 492.011841,332.299683 491.476593,329.291382   C491.163483,327.531860 489.882629,325.975525 488.029510,326.511230   C484.895935,327.417114 486.277985,330.262268 486.175171,332.382812   C486.147003,332.963562 486.645264,333.569855 487.550842,334.532227  z"/>
<path fill="#444444" opacity="1.000000" stroke="none" d=" M369.903046,327.176514   C370.997406,330.882935 373.719971,333.761841 372.854736,338.990814   C368.848175,333.677368 364.907501,332.387451 360.486145,338.770752   C361.559540,332.357544 363.359711,327.519318 365.871704,323.098328   C368.893158,323.127716 368.930786,325.328339 369.903046,327.176514  z"/>
<path fill="#444444" opacity="1.000000" stroke="none" d=" M353.722656,331.341980   C353.794922,325.618896 353.794922,325.618896 355.549072,323.287354   C357.839233,326.442078 357.982697,333.468811 355.810699,336.101624   C353.581024,338.804321 348.837189,338.992432 346.479980,336.471619   C344.039429,333.861633 344.146942,326.492737 346.816559,323.153748   C349.301239,325.476440 347.887909,328.465790 348.243164,331.070465   C348.472839,332.754364 348.421265,334.662048 350.432739,335.066162   C352.875458,335.556854 353.502350,333.742188 353.722656,331.341980  z"/>
<path fill="#444444" opacity="1.000000" stroke="none" d=" M561.661499,325.501648   C559.210083,326.679474 558.816040,327.820038 561.420471,328.698730   C562.608215,329.099518 564.190552,328.627655 564.624146,330.405975   C564.060669,333.042938 560.881592,331.272705 559.805420,333.213470   C560.509888,336.386505 564.901367,333.504639 565.538818,337.036102   C562.751282,338.861237 559.762024,338.822205 556.966064,337.149261   C555.455811,336.245636 555.494629,325.811096 556.705627,324.073822   C557.979736,322.246002 561.403992,322.204132 565.223328,323.995300   C564.778931,325.874603 563.154785,325.147461 561.661499,325.501648  z"/>
<path fill="#444444" opacity="1.000000" stroke="none" d=" M467.813965,327.203857   C468.972870,322.075836 472.170227,321.196228 476.766266,324.308044   C475.855652,326.775421 472.305511,324.266846 471.556915,327.115295   C471.960480,329.872040 475.364868,327.718079 476.234131,329.993774   C476.283569,332.961609 472.187469,330.989990 471.735718,333.522858   C472.670990,336.139954 476.494812,333.749115 477.353882,336.899841   C475.028900,339.067200 472.110046,338.535156 469.586975,337.795776   C466.857635,336.995911 467.933716,334.192596 467.784607,332.160095   C467.675507,330.672638 467.787354,329.168945 467.813965,327.203857  z"/>
<path fill="#444444" opacity="1.000000" stroke="none" d=" M505.675232,338.175751   C500.920380,338.819946 499.033173,337.011414 499.579529,332.636993   C499.721863,331.497345 499.599030,330.325562 499.612457,329.168701   C499.692261,322.289459 501.557770,321.143158 508.679688,323.843536   C507.751312,326.365784 504.420105,324.426880 503.473511,326.728851   C503.144501,329.728302 506.958710,327.937744 507.519073,330.134521   C507.381714,332.900085 503.375000,331.055481 503.021698,333.761230   C504.258179,335.949707 507.272156,334.052155 508.658569,336.209930   C508.940216,338.160614 507.309906,337.904236 505.675232,338.175751  z"/>
<path fill="#444444" opacity="1.000000" stroke="none" d=" M517.868774,327.145172   C518.211670,329.669189 521.424561,328.184387 521.859192,330.861816   C518.701660,331.798645 516.843323,334.152161 516.411743,337.717316   C513.959167,335.497284 512.838928,325.960266 514.468933,323.873322   C515.825745,322.136078 520.246460,322.287354 523.439575,324.200409   C522.437622,326.797424 519.427124,325.230072 517.868774,327.145172  z"/>
<path fill="#444444" opacity="1.000000" stroke="none" d=" M433.164978,337.531006   C431.695679,332.676086 430.550201,327.979828 427.602448,323.491211   C431.676331,322.430908 431.646301,326.573578 434.013458,327.021027   C436.144531,326.395996 436.226746,322.396851 440.533783,323.519531   C436.907562,327.948608 436.334167,333.285278 433.164978,337.531006  z"/>
<path fill="#444444" opacity="1.000000" stroke="none" d=" M378.760590,337.726776   C376.803925,332.704285 376.455383,327.903534 378.141541,322.849030   C381.179657,323.914886 380.954895,326.028290 380.837341,327.677216   C380.551544,331.684418 380.669464,335.253906 386.241425,336.021759   C383.945557,339.018768 381.421509,338.013428 378.760590,337.726776  z"/>
<path fill="#444444" opacity="1.000000" stroke="none" d=" M415.760315,331.190796   C416.276825,327.711731 414.671204,325.840302 411.800232,324.308380   C415.833527,322.260132 419.463562,322.457642 423.641388,324.082306   C416.020721,326.519714 421.310272,333.975220 417.892914,337.992249   C414.788300,336.320312 416.132141,333.720703 415.760315,331.190796  z"/>
<path fill="#444444" opacity="1.000000" stroke="none" d=" M393.280518,326.299622   C393.151367,330.856995 392.470245,335.232056 398.640991,336.294312   C396.282166,339.147552 393.705017,338.432495 391.542389,337.798492   C389.358551,337.158325 389.866730,334.820587 389.832123,333.055847   C389.783325,330.569641 389.843658,328.079041 389.935913,325.593262   C389.974304,324.558350 390.397675,323.427856 391.523682,323.371613   C393.122437,323.291718 393.090363,324.733032 393.280518,326.299622  z"/>
<path fill="#444444" opacity="1.000000" stroke="none" d=" M401.933472,331.836273   C402.274536,328.543823 401.004150,325.268127 404.587891,321.905365   C405.863861,327.959534 405.506409,332.786194 404.991547,338.144470   C401.206421,336.939240 402.155182,334.341522 401.933472,331.836273  z"/>
<path fill="#444444" opacity="1.000000" stroke="none" d=" M528.890015,325.547272   C529.557312,323.297974 531.151489,322.216675 531.656616,324.528168   C532.597778,328.834900 532.930481,333.403259 530.686890,339.031494   C527.762512,334.025482 529.080933,329.888214 528.890015,325.547272  z"/>
</svg>